<svg id="visual" viewBox="0 0 900 600" width="900" height="600" xmlns="http://www.w3.org/2000/svg" xmlns:xlink="http://www.w3.org/1999/xlink" version="1.1"><path d="M0 112L16.7 128C33.3 144 66.7 176 100 174.7C133.3 173.3 166.7 138.7 200 125.7C233.3 112.7 266.7 121.3 300 132C333.3 142.7 366.7 155.3 400 153.8C433.3 152.3 466.7 136.7 500 121.7C533.3 106.7 566.7 92.3 600 106.2C633.3 120 666.7 162 700 168C733.3 174 766.7 144 800 149C833.3 154 866.7 194 883.3 214L900 234L900 0L883.3 0C866.7 0 833.3 0 800 0C766.7 0 733.3 0 700 0C666.7 0 633.3 0 600 0C566.7 0 533.3 0 500 0C466.7 0 433.3 0 400 0C366.7 0 333.3 0 300 0C266.7 0 233.3 0 200 0C166.7 0 133.3 0 100 0C66.7 0 33.3 0 16.7 0L0 0Z" fill="#0e1217" stroke-linecap="round" stroke-linejoin="miter"></path></svg>