<svg id="visual" viewBox="0 0 900 600" width="900" height="600" xmlns="http://www.w3.org/2000/svg" xmlns:xlink="http://www.w3.org/1999/xlink" version="1.1"><g transform="translate(398.8312845570411 250.78311057360372)"><path d="M485 -755.6C616.7 -670 703.6 -515.5 775.6 -355C847.7 -194.6 904.9 -28.1 896.3 138.8C887.8 305.7 813.5 473.1 697.8 602.4C582.2 731.8 425.4 823.1 252.9 884.3C80.4 945.4 -107.7 976.4 -251.7 910C-395.7 843.7 -495.6 679.8 -576.2 530.6C-656.9 381.4 -718.2 246.7 -757.5 97.4C-796.8 -51.8 -814.1 -215.8 -763.8 -358.4C-713.6 -501 -595.8 -622.3 -457.2 -704.9C-318.6 -787.4 -159.3 -831.2 8.7 -844.7C176.6 -858.1 353.2 -841.3 485 -755.6" fill="#11151a"></path></g></svg>